# xmcd CD database file
#
# Track frame offsets:
#	150
#	33910
#	58122
#	79475
#	93522
#	110395
#	138227
#	167672
#	179582
#	202932
#	222450
#
# Disc length: 3256 seconds
#
# Revision: 0
# Processed by: cddbd v1.5.1PL0 Copyright (c) Steve Scherf et al.
# Submitted via: CDex 1.51
#
DISCID=9b0cb60b
DTITLE=Windham Hill - CHIKAI
DYEAR=1986
DGENRE=New Age
TTITLE0=On The Threshold of Liberty/Mark Isham
TTITLE1=Variations on The Knon by Johann Pachelbel/George Winston
TTITLE2=Bradley's Dream/Liz Story
TTITLE3=Bach Bouree/Darol Anger and Mike Marchall
TTITLE4=Montana Half-light/Philip Aaberg
TTITLE5=Visiting/William Ackerman
TTITLE6=Consolation/Rick Peller
TTITLE7=New Waltz/Malcolm Dalglish
TTITLE8=Wedding At Jenny Lake/Scott Cossu with Eugene Friesen
TTITLE9=A Thousand Teardrops/Shadowfax
TTITLE10=The Calling/Iria Stein and Russel Walder
EXTD=YEAR: 1986
EXTT0=
EXTT1=
EXTT2=
EXTT3=
EXTT4=
EXTT5=
EXTT6=
EXTT7=
EXTT8=
EXTT9=
EXTT10=
PLAYORDER=
